<?xml version="1.0" standalone="no"?>
<!DOCTYPE svg PUBLIC "-//W3C//DTD SVG 20010904//EN"
 "http://www.w3.org/TR/2001/REC-SVG-20010904/DTD/svg10.dtd">
<svg version="1.0" xmlns="http://www.w3.org/2000/svg"
 width="736.000000pt" height="550.000000pt" viewBox="0 0 736.000000 550.000000"
 preserveAspectRatio="xMidYMid meet">
<metadata>
Created by potrace 1.15, written by Peter Selinger 2001-2017
</metadata>
<g transform="translate(0.000000,550.000000) scale(0.100000,-0.100000)"
fill="#000000" stroke="none">
<path d="M40 4001 l0 -1441 135 0 135 0 0 -610 0 -610 553 -2 c303 0 557 -2
562 -3 6 -2 79 -3 163 -4 l152 -1 0 -635 0 -635 75 0 75 0 0 35 c0 24 -5 35
-15 35 -13 0 -15 114 -15 970 l0 970 -77 0 c-74 0 -78 1 -152 49 -42 26 -85
48 -96 48 -22 0 -175 -94 -175 -107 0 -22 21 -15 89 27 52 33 69 48 59 54 -22
15 1 10 33 -6 73 -38 154 -98 154 -113 0 -13 11 -18 45 -22 l45 -5 -1 -275 -1
-275 -47 0 c-25 1 -159 2 -296 3 l-250 2 2 277 3 278 63 3 62 3 0 34 0 35 -65
0 -65 0 0 45 c0 45 0 45 -35 45 l-35 0 0 -170 0 -169 -137 -4 -138 -3 138 -2
137 -2 0 -185 0 -185 -375 0 -375 0 0 350 0 349 73 4 72 3 -72 2 -73 2 0 155
0 155 59 0 c51 0 62 -3 75 -22 9 -12 16 -17 16 -11 0 28 -32 43 -91 43 l-59 0
0 36 0 37 53 -7 c28 -3 197 -6 375 -6 l322 0 0 -36 c0 -35 1 -35 38 -32 35 3
37 4 34 36 l-4 32 346 0 345 0 3 215 3 215 -37 0 c-20 0 -40 -4 -43 -10 -4 -6
-94 -10 -238 -10 l-232 0 -90 60 c-49 33 -101 60 -115 60 -24 0 -210 -115
-210 -131 0 -22 25 -14 100 36 46 30 91 57 101 60 25 8 209 -113 209 -137 0
-15 12 -18 83 -20 l82 -3 0 -130 0 -130 -445 0 c-245 -1 -507 1 -582 3 l-138
3 0 135 0 134 40 0 c31 0 40 4 40 18 1 11 35 38 96 76 52 32 93 61 90 63 -2 3
-30 -12 -61 -32 -32 -20 -59 -34 -61 -32 -2 2 23 21 56 41 l60 37 101 -66
c110 -71 119 -76 126 -58 6 17 -190 143 -215 138 -11 -2 -59 -29 -106 -59
l-87 -56 -149 0 -150 0 0 1150 0 1150 553 2 c303 2 459 4 345 5 l-208 3 0 54
c0 31 5 58 13 64 8 6 80 8 207 3 l195 -6 3 -62 c3 -59 4 -63 27 -63 24 0 25 3
25 59 0 44 4 60 16 65 9 3 100 6 204 6 214 0 213 0 208 -77 l-3 -48 -90 -6
c-81 -5 -75 -5 58 -7 l147 -2 0 -945 0 -945 35 0 35 0 0 109 c0 63 4 112 10
116 13 8 13 75 0 75 -6 0 -10 79 -10 216 l0 216 835 -8 835 -7 -1 234 c-1 129
-4 225 -6 215 -4 -14 -7 -16 -13 -6 -7 11 -11 11 -23 1 -13 -10 -16 -9 -20 6
-3 10 -5 3 -6 -14 -1 -44 -26 -43 -101 2 -32 19 -65 35 -74 35 -18 0 -119 -60
-112 -67 2 -2 21 6 43 19 37 24 104 31 120 13 5 -4 -2 -4 -14 -1 -38 12 -26
-1 32 -36 33 -20 55 -40 55 -50 0 -13 8 -18 25 -18 l25 0 0 -125 0 -125 -355
0 -355 0 0 125 0 125 25 0 c18 0 25 5 25 19 0 13 20 32 59 55 32 20 61 36 65
36 3 0 31 -17 62 -37 45 -30 57 -34 64 -23 7 11 -5 24 -50 52 -33 21 -67 38
-78 38 -10 0 -42 -16 -72 -35 -30 -19 -65 -35 -77 -35 -21 0 -23 5 -23 55 l0
55 -35 0 c-35 0 -41 -9 -36 -55 0 -5 -67 -44 -150 -85 -83 -41 -153 -78 -155
-82 -5 -8 84 34 224 105 l72 37 0 -165 c0 -91 -2 -165 -5 -165 -18 0 -314 164
-312 173 1 6 -9 12 -23 12 -14 1 -79 29 -144 63 -66 34 -121 60 -123 58 -2 -2
55 -34 127 -70 79 -41 128 -71 124 -78 -4 -6 -1 -8 7 -5 8 2 89 -34 182 -82
l167 -86 -171 -3 c-93 -1 -245 -1 -336 0 l-166 3 104 54 c57 29 109 58 114 63
6 6 -37 -14 -95 -43 -58 -30 -108 -55 -112 -57 -5 -2 -8 71 -8 162 0 91 3 166
6 166 3 0 15 -5 27 -12 20 -10 21 -10 8 5 -7 10 -19 17 -27 17 -7 0 -16 5 -19
10 -4 7 55 10 170 10 115 0 174 -3 170 -10 -3 -5 -2 -10 4 -10 5 0 13 4 16 10
4 6 13 5 26 -3 16 -10 22 -9 30 3 8 11 12 12 16 3 6 -15 43 -17 43 -3 0 6 8 5
20 -2 17 -11 22 -10 30 2 9 13 11 13 20 0 7 -11 12 -12 18 -3 4 6 28 14 52 16
l45 4 -51 0 c-27 0 -56 3 -63 7 -7 5 -18 3 -23 -2 -7 -7 -17 -8 -29 -2 -10 6
-20 6 -23 1 -3 -4 -25 -7 -48 -5 -24 3 -130 4 -235 4 l-193 -1 0 27 c0 20 4
25 16 20 13 -5 14 -3 6 7 -7 8 -13 122 -18 310 l-7 297 55 0 c30 0 59 -5 66
-12 17 -17 16 -212 -1 -226 -7 -6 -33 -12 -57 -15 l-45 -4 46 -1 c67 -3 77 13
79 118 1 47 1 93 1 102 -2 32 -30 48 -87 48 -41 0 -54 4 -54 15 0 13 77 15
633 15 347 0 648 -3 667 -6 l35 -6 -3 -152 -3 -153 44 -6 c24 -3 53 -3 66 0
17 4 23 1 28 -16 8 -30 73 -31 73 -1 0 19 6 20 88 18 l87 -3 3 156 c2 153 3
157 25 163 20 5 22 10 18 62 -2 40 1 59 10 65 8 5 100 9 205 9 220 0 218 1
212 -80 -2 -35 1 -51 10 -55 25 -9 32 6 32 65 0 54 2 60 23 65 12 3 105 4 207
3 l185 -3 3 -67 3 -66 47 1 c26 0 37 2 25 4 -21 4 -23 10 -23 63 0 44 4 59 16
64 20 8 368 8 388 0 12 -5 16 -21 16 -65 l0 -59 -187 -3 c-104 -1 130 -3 520
-5 l707 -2 0 -975 0 -975 -1310 0 -1310 0 0 180 0 180 -47 0 c-27 0 -97 1
-158 3 l-110 2 -70 48 c-38 26 -79 47 -89 47 -31 0 -176 -99 -169 -116 6 -15
26 -5 121 59 23 15 46 27 51 25 41 -16 151 -97 153 -113 3 -17 12 -20 61 -23
l57 -3 0 -144 0 -145 -485 0 -486 0 3 148 3 147 43 3 c31 2 42 7 42 20 1 10
32 36 81 65 l81 49 75 -46 c79 -48 88 -52 97 -37 8 12 -145 111 -172 111 -12
0 -52 -20 -90 -45 -68 -43 -71 -44 -163 -47 l-94 -3 0 -35 c0 -23 4 -34 13
-32 9 1 12 -52 12 -239 l0 -241 -57 -91 c-31 -51 -57 -104 -57 -118 0 -24 103
-201 125 -215 5 -3 12 1 15 9 3 8 -25 62 -61 120 -56 88 -65 109 -55 124 10
16 10 15 5 -4 -4 -13 -5 -23 -2 -23 2 0 30 43 62 95 39 63 65 95 77 95 15 0
18 9 18 60 l0 60 130 0 130 0 0 -575 0 -575 -130 0 -130 0 0 55 c0 48 -3 55
-20 56 -11 1 -25 2 -31 3 -12 1 -49 47 -49 61 0 6 10 -5 21 -23 12 -18 23 -31
26 -29 2 2 -20 42 -48 88 -29 46 -52 89 -52 94 0 6 26 52 58 103 37 60 54 97
48 103 -12 12 -26 -4 -90 -106 -27 -44 -50 -89 -50 -100 0 -11 26 -61 59 -112
l58 -92 0 -86 0 -85 200 0 200 0 0 113 c0 61 0 336 0 610 l0 497 1731 0 1731
0 -6 -44 -7 -45 58 -3 58 -3 3 -242 c2 -185 5 -243 15 -243 9 0 12 -40 10
-168 -1 -92 -2 -193 -3 -224 l0 -58 -67 0 -68 0 0 -1032 0 -1032 -860 0 -860
0 -3 212 -2 212 -35 0 -35 0 0 -134 c0 -132 0 -135 -22 -139 l-23 -4 23 -2
c21 -1 22 -5 22 -71 l0 -70 -200 0 c-110 0 -200 3 -200 8 0 4 -48 5 -107 2
-59 -3 -129 -3 -155 -2 l-47 4 -4 51 -3 52 -2 -57 -2 -58 -465 0 -466 0 1 168
c1 205 0 209 -46 204 l-34 -4 0 -184 0 -184 -155 0 -155 0 -6 -25 c-3 -14 -4
-31 -1 -38 4 -11 376 -13 2011 -16 l2007 -3 -6 254 c-4 206 -8 549 -7 686 1
15 -1 116 -4 225 -3 110 -1 204 4 210 5 7 9 50 9 97 0 77 -1 80 -7 30 -4 -32
-7 25 -6 140 0 189 0 191 6 60 5 -123 6 -113 9 110 2 135 3 249 2 254 -1 4 1
17 4 27 6 18 24 19 388 22 l382 2 -381 3 c-344 2 -382 4 -388 18 -4 9 -7 122
-7 250 -1 186 -4 236 -14 242 -14 7 -17 71 -16 335 1 95 3 109 19 113 16 5 17
35 16 457 0 249 2 550 4 669 l3 218 192 3 192 2 -192 3 -193 2 -1 338 c0 185
0 394 1 464 l1 128 -588 2 c-618 3 -657 2 -648 -13 4 -5 -71 -9 -189 -9 -124
0 -196 4 -196 10 0 6 -33 9 -82 8 -71 -1 -77 -2 -38 -8 25 -4 -45 -7 -155 -6
l-200 0 155 6 155 6 -205 2 c-135 1 -200 -2 -190 -8 12 -8 9 -10 -12 -10 -15
0 -29 4 -33 10 -7 11 -65 9 -65 -3 0 -5 -5 -5 -12 -1 -22 14 -505 19 -963 11
-150 -2 -170 -2 -70 3 77 3 -179 7 -570 9 -786 4 -769 4 -773 -9 -2 -6 -52 -9
-120 -8 -106 1 -111 2 -47 8 39 3 -101 5 -310 4 -215 0 -328 2 -260 5 l120 7
-163 2 c-107 1 -161 -1 -157 -8 4 -7 -61 -10 -189 -10 -143 0 -195 3 -198 12
-3 9 -49 13 -156 16 l-152 4 0 -1441z m694 1393 c12 -5 16 -21 16 -65 l0 -59
-210 0 -210 0 0 59 c0 38 4 61 13 64 18 8 372 8 391 1z m1754 -19 c8 -3 12
-24 12 -60 l0 -55 -210 0 -210 0 0 59 c0 54 2 60 23 64 26 4 366 -3 385 -8z
m787 -3 c6 -4 9 -30 7 -59 l-4 -53 -209 0 -209 0 0 53 c0 30 3 57 7 60 9 9
395 9 408 -1z m3029 -3488 c12 -31 7 -379 -6 -392 -7 -7 -36 -12 -65 -12 l-53
0 0 210 0 210 59 0 c44 0 60 -4 65 -16z m0 -469 c3 -8 5 -95 5 -193 -1 -209
-3 -215 -76 -210 l-48 3 -3 208 -2 207 59 0 c43 0 60 -4 65 -15z m-7 -457 c11
-18 12 -379 1 -400 -7 -14 -21 -18 -63 -18 l-55 0 0 215 0 215 54 0 c33 0 58
-5 63 -12z"/>
<path d="M982 4258 c-23 -23 -14 -73 18 -96 27 -20 39 -22 162 -20 121 2 125
2 50 7 -80 6 -82 7 -62 23 36 32 14 98 -33 98 -44 0 -57 -78 -18 -107 13 -10
8 -12 -34 -13 -48 0 -49 1 -27 16 15 10 22 25 22 48 0 37 -15 56 -45 56 -12 0
-26 -5 -33 -12z"/>
<path d="M406 1774 c-13 -12 -16 -40 -16 -135 0 -172 -25 -159 315 -159 301 0
314 2 354 58 50 70 32 180 -37 227 l-37 25 -282 0 c-243 0 -284 -2 -297 -16z
m584 -7 c51 -18 80 -67 80 -137 0 -64 -20 -99 -70 -125 -40 -21 -546 -22 -574
-2 -15 11 -18 29 -17 137 1 87 5 126 14 132 20 13 527 9 567 -5z"/>
<path d="M2644 1316 c-3 -7 -3 -101 -2 -211 l3 -200 33 -3 c29 -3 32 -1 32 23
l0 26 420 -3 c231 -2 417 -2 413 -1 -14 5 -4 313 10 313 69 2 181 3 265 1
l103 -1 -3 -157 -3 -158 268 -2 267 -2 0 190 0 189 -712 0 c-392 0 -798 1
-901 3 -133 3 -190 0 -193 -7z m884 -209 l-3 -142 -405 2 -405 2 -2 133 c-2
73 -1 138 1 143 2 7 146 9 410 7 l407 -2 -3 -143z m752 73 l0 -70 -57 -2 -58
-2 58 -3 57 -4 0 -69 0 -70 -175 0 -175 0 0 145 0 145 175 0 175 0 0 -70z"/>
</g>
</svg>
