<?xml version="1.0" encoding="utf-8"?>
<!-- Generator: Adobe Illustrator 22.0.1, SVG Export Plug-In . SVG Version: 6.00 Build 0)  -->
<svg version="1.1" xmlns="http://www.w3.org/2000/svg" xmlns:xlink="http://www.w3.org/1999/xlink" x="0px" y="0px"
	 viewBox="0 0 70 70" style="enable-background:new 0 0 70 70;" xml:space="preserve">
<style type="text/css">
	.st0{display:none;}
	.st1{display:inline;}
	.st2{fill:#FFFFFF;}
	.st3{display:inline;fill:#FFFFFF;}
	.st4{fill:#444444;}
</style>
<g id="Layer_1" class="st0">
	<g class="st1">
		<path class="st2" d="M33.5,18.2c-1.1,0-2.1,0-3.2,0c0-2.1,0-4.1,0-6.1c-1,0-2,0-2.9,0c0,4.1,0,8.2,0,12.3c1,0,1.9,0,2.9,0
			c0,1,0,1.9,0,2.9c1.1,0,2.1,0,3.2,0c0-1,0-1.9,0-2.9c1,0,1.9,0,2.9,0c0,1,0,1.9,0,2.9c1.1,0,2.1,0,3.2,0c0,1,0,2,0,3
			c-1.1,0-2.1,0-3.2,0c0,1.1,0,2.1,0,3.2c-2,0-4.1,0-6.2,0c0-1.1,0-2.1,0-3.2c-2,0-3.9,0-5.9,0c0-1,0-1.9,0-2.9c-1.1,0-2.1,0-3.2,0
			c0,1,0,1.9,0,2.9c-1,0-2,0-3,0c0,1.1,0,2.1,0,3.2c-1,0-2,0-3,0c0-2,0-4.1,0-6.1c-1.1,0-2.1,0-3.2,0c0,1,0,1.9,0,2.9
			c-1,0-1.9,0-2.9,0c0,1.1,0,2.1,0,3.2c-1.1,0-2.1,0-3.2,0c0,1,0,2,0,2.9c1.1,0,2.1,0,3.2,0c0-1,0-1.9,0-2.9c1,0,2,0,3,0
			c0,3,0,6,0,9c4.1,0,8.2,0,12.3,0c0-1,0-1.9,0-2.9c3.1,0,6.1,0,9.1,0c0-1.1,0-2.1,0-3.2c1,0,2,0,2.9,0c0-1,0-2,0-3
			c1.1,0,2.1,0,3.2,0c0-1.1,0-2.1,0-3.2c1,0,1.9,0,2.9,0c0-3.1,0-6.1,0-9.1c-1,0-1.9,0-2.9,0c0-2,0-3.9,0-5.9c1,0,1.9,0,2.9,0
			c0-3.1,0-6.2,0-9.3c-1,0-1.9,0-2.9,0c0,1.1,0,2.1,0,3.2c-1.1,0-2.1,0-3.2,0c0,2.1,0,4.1,0,6.2c-1,0-1.9,0-2.9,0
			C33.5,16.3,33.5,17.3,33.5,18.2L33.5,18.2z M48.8,54.7L48.8,54.7c0-1.9,0-3.9,0-5.9c-1.1,0-2.1,0-3.2,0c0-1.1,0-2.1,0-3.2
			c1.1,0,2.1,0,3.2,0c0-1,0-2,0-2.9c1,0,2,0,2.9,0c0,2,0,4.1,0,6.1c2.1,0,4.1,0,6.2,0c0,2,0,3.9,0,5.9c1,0,1.9,0,2.9,0
			c0,1.1,0,2.1,0,3.2c-2.1,0-4.1,0-6.1,0c0,2.1,0,4.1,0,6.2c1.1,0,2.1,0,3.2,0c0,1,0,2,0,2.9c2.1,0,4.1,0,6.1,0c0-1,0-1.9,0-2.9
			C62,64,60,64,58,64c0-1.1,0-2.1,0-3.2c1,0,1.9,0,2.9,0c0-1,0-1.9,0-2.9c1.1,0,2.1,0,3.2,0c0,1,0,1.9,0,2.9c1,0,2,0,2.9,0
			c0-3,0-6,0-9.1c-1,0-1.9,0-2.9,0c0-1,0-2,0-3c-2.1,0-4.1,0-6.1,0c0-1.1,0-2.1,0-3.2c1,0,1.9,0,2.9,0c0-1,0-1.9,0-3
			c1.1,0,2.1,0,3.2,0c0-2.1,0-4.1,0-6.2c-1.1,0-2.1,0-3.1,0c0-1,0-2,0-3c1.1,0,2.1,0,3.2,0c0-1.1,0-2.1,0-3.2c1,0,2,0,2.9,0
			c0-1,0-2,0-2.9c-2,0-4.1,0-6.1,0c0,2.1,0,4.1,0,6.1c-1,0-2,0-3,0c0-2,0-4.1,0-6.1c-3.1,0-6.1,0-9.1,0c0,4.1,0,8.2,0,12.2
			c-2.1,0-4.1,0-6.1,0c0-1.1,0-2.1,0-3.2c1,0,1.9,0,2.9,0c0-1,0-2,0-2.9c-1,0-1.9,0-2.9,0c0,1,0,1.9,0,2.9c-1,0-1.9,0-3,0
			c0,1.1,0,2.1,0,3.2c-1.1,0-2.1,0-3.2,0c0,3.1,0,6.1,0,9.1c-2.1,0-4.1,0-6.1,0c0,1,0,2,0,3c1.1,0,2.1,0,3.1,0c0,1,0,2,0,3
			c-2,0-4.1,0-6.1,0c0,1.1,0,2.1,0,3.2c3,0,6,0,9,0c0,1,0,2,0,3c-2,0-4.1,0-6.1,0c0,2.1,0,4.1,0,6.1c1.1,0,2.1,0,3.2,0
			c0-1,0-1.9,0-2.9c3,0,6,0,9.1,0c0-1.1,0-2.1,0-3.2c1,0,2,0,3,0c0,1.1,0,2.1,0,3.2c1.1,0,2.1,0,3.2,0c0,1,0,2,0,2.9c1,0,2,0,2.9,0
			c0-4.1,0-8.2,0-12.3C50.7,54.7,49.8,54.7,48.8,54.7z M67,24.4c0-7.1,0-14.3,0-21.4c-7.1,0-14.2,0-21.4,0c0,7.1,0,14.3,0,21.4
			C52.8,24.4,59.9,24.4,67,24.4z M24.4,3C17.2,3,10.1,3,3,3c0,7.1,0,14.2,0,21.4c7.1,0,14.3,0,21.4,0C24.4,17.2,24.4,10.1,24.4,3z
			 M24.4,67c0-7.1,0-14.2,0-21.4c-7.1,0-14.3,0-21.4,0C3,52.8,3,59.9,3,67C10.1,67,17.2,67,24.4,67z M36.5,3c-3.1,0-6,0-9.1,0
			c0,2,0,4.1,0,6.1c1,0,1.9,0,2.9,0c0-1.1,0-2.1,0-3.2c2.1,0,4.1,0,6.1,0C36.5,4.9,36.5,4,36.5,3z M3,39.7c0,1,0,1.9,0,2.9
			c2,0,4.1,0,6.1,0c0-1,0-1.9,0-2.9C7,39.7,5,39.7,3,39.7z M27.4,45.6c2.1,0,4.1,0,6.1,0c0-1,0-1.9,0-2.9c-2.1,0-4.1,0-6.1,0
			C27.4,43.6,27.4,44.6,27.4,45.6z"/>
		<path d="M48.8,54.7c1,0,1.9,0,2.9,0c0,4.1,0,8.2,0,12.3c-0.9,0-1.9,0-2.9,0c0-0.9,0-1.9,0-2.9c-1.1,0-2.1,0-3.2,0
			c0-1.1,0-2.1,0-3.2c-1,0-1.9,0-3,0c0,1,0,2.1,0,3.2c-3.1,0-6.1,0-9.1,0c0,1,0,1.9,0,2.9c-1.1,0-2.1,0-3.2,0c0-2,0-4,0-6.1
			c2,0,4,0,6.1,0c0-1,0-1.9,0-3c-3,0-6,0-9,0c0-1.1,0-2.1,0-3.2c2,0,4,0,6.1,0c0-1,0-2,0-3c-1,0-2.1,0-3.1,0c0-1,0-2,0-3
			c2,0,4.1,0,6.1,0c0-3,0-6,0-9.1c1.1,0,2.1,0,3.2,0c0-1.1,0-2.1,0-3.2c1,0,2,0,3,0c0-1,0-1.9,0-2.9c1,0,1.9,0,2.9,0
			c0,1,0,1.9,0,2.9c-1,0-1.9,0-2.9,0c0,1.1,0,2.1,0,3.2c2,0,4,0,6.1,0c0-4.1,0-8.1,0-12.2c3.1,0,6.1,0,9.1,0c0,2,0,4,0,6.1
			c1,0,1.9,0,3,0c0-2,0-4,0-6.1c2.1,0,4.1,0,6.1,0c0,1,0,1.9,0,2.9c-0.9,0-1.9,0-2.9,0c0,1.1,0,2.1,0,3.2c-1.1,0-2.1,0-3.2,0
			c0,1,0,2,0,3c1,0,2.1,0,3.1,0c0,2.1,0,4.1,0,6.2c-1,0-2.1,0-3.2,0c0,1,0,2,0,3c-1,0-1.9,0-2.9,0c0,1.1,0,2.1,0,3.2c2,0,4,0,6.1,0
			c0,1,0,2,0,3c1,0,2,0,2.9,0c0,3.1,0,6.1,0,9.1c-1,0-1.9,0-2.9,0c0-1,0-1.9,0-2.9c-1.1,0-2.1,0-3.2,0c0,1,0,1.9,0,2.9
			c-1,0-1.9,0-2.9,0c0,1.1,0,2.1,0,3.2c2,0,4,0,6.1,0c0,1,0,2,0,2.9c-2,0-4,0-6.1,0c0-0.9,0-1.9,0-2.9c-1.1,0-2.1,0-3.2,0
			c0-2.1,0-4.1,0-6.2c2,0,4,0,6.1,0c0-1.1,0-2.1,0-3.2c-1,0-1.9,0-2.9,0c0-2,0-3.9,0-5.9c-2.1,0-4.1,0-6.2,0c0-2.1,0-4.1,0-6.1
			c-1,0-1.9,0-2.9,0c0,1,0,1.9,0,2.9c-1.1,0-2.1,0-3.2,0c0,1.1,0,2.1,0,3.2c1,0,2.1,0,3.2,0C48.8,50.8,48.8,52.7,48.8,54.7
			c-1,0-2.1,0-3.2,0c0-1,0-2,0-2.9c-1,0-2,0-3,0c0,1,0,1.9,0,2.9c-1,0-2,0-2.9,0c0,1.1,0,2.1,0,3.2c2,0,3.9,0,5.9,0c0,1,0,2,0,2.9
			c1.1,0,2.1,0,3.2,0C48.8,58.8,48.8,56.7,48.8,54.7z M54.7,39.6c2.1,0,4.1,0,6.1,0c0-1.1,0-2.1,0-3.1c-2.1,0-4.1,0-6.1,0
			C54.7,37.6,54.7,38.6,54.7,39.6z M42.6,45.6c-1,0-2,0-2.9,0c0,2.1,0,4.1,0,6.1c1,0,1.9,0,2.9,0C42.6,49.7,42.6,47.7,42.6,45.6z
			 M54.7,33.5c0-1.1,0-2.1,0-3.1c-1,0-1.9,0-2.9,0c0,1.1,0,2.1,0,3.1C52.8,33.5,53.7,33.5,54.7,33.5z M57.9,42.7c-1.1,0-2.1,0-3.1,0
			c0,1,0,1.9,0,2.9c1.1,0,2.1,0,3.1,0C57.9,44.6,57.9,43.7,57.9,42.7z M51.8,42.6c1,0,2,0,2.9,0c0-1,0-1.9,0-2.9c-1,0-1.9,0-2.9,0
			C51.8,40.7,51.8,41.6,51.8,42.6z M45.6,42.7c-1,0-1.9,0-2.9,0c0,1,0,1.9,0,2.9c1,0,1.9,0,2.9,0C45.6,44.6,45.6,43.7,45.6,42.7z"/>
		<path d="M36.5,33.5c0,1,0,1.9,0,3c-1,0-1.9,0-2.9,0c0,1.1,0,2.1,0,3.2c-3,0-6,0-9.1,0c0,1,0,1.9,0,2.9c-4.1,0-8.2,0-12.3,0
			c0-3,0-6,0-9c-1,0-1.9,0-3,0c0,1,0,1.9,0,2.9c-1.1,0-2.1,0-3.2,0c0-1,0-1.9,0-2.9c1,0,2.1,0,3.2,0c0-1.1,0-2.1,0-3.2
			c1,0,1.9,0,2.9,0c0-1,0-1.9,0-2.9c1.1,0,2.1,0,3.2,0c0,2,0,4,0,6.1c1,0,2,0,3,0c0-1,0-2.1,0-3.2c1,0,1.9,0,3,0c0-1,0-2,0-2.9
			c1.1,0,2.1,0,3.2,0c0,1,0,1.9,0,2.9c2,0,3.9,0,5.9,0c0,1.1,0,2.1,0,3.2C32.4,33.5,34.4,33.5,36.5,33.5
			C36.5,33.5,36.5,33.5,36.5,33.5z M21.3,36.5c0,1,0,2.1,0,3.1c1.1,0,2.1,0,3.1,0c0-1.1,0-2.1,0-3.1C23.3,36.5,22.3,36.5,21.3,36.5z
			 M24.4,30.4c-1.1,0-2.1,0-3.1,0c0,1.1,0,2.1,0,3.1c1.1,0,2.1,0,3.1,0C24.4,32.4,24.4,31.4,24.4,30.4z"/>
		<path d="M67,24.4c-7.1,0-14.2,0-21.4,0c0-7.1,0-14.2,0-21.4C52.8,3,59.9,3,67,3C67,10.1,67,17.2,67,24.4z M64.1,6
			c-5.1,0-10.2,0-15.2,0c0,5.1,0,10.1,0,15.2c5.1,0,10.2,0,15.2,0C64.1,16.1,64.1,11,64.1,6z"/>
		<path d="M24.4,3c0,7.1,0,14.2,0,21.4c-7.1,0-14.2,0-21.4,0C3,17.3,3,10.1,3,3C10.1,3,17.2,3,24.4,3z M5.9,21.2
			c5.1,0,10.2,0,15.2,0c0-5.1,0-10.1,0-15.2C16.1,6,11,6,5.9,6C5.9,11,5.9,16.1,5.9,21.2z"/>
		<path d="M24.4,67c-7.2,0-14.3,0-21.4,0c0-7.1,0-14.2,0-21.4c7.1,0,14.2,0,21.4,0C24.4,52.8,24.4,59.9,24.4,67z M21.2,64.1
			c0-5.1,0-10.2,0-15.2c-5.1,0-10.1,0-15.2,0C6,53.9,6,59,6,64.1C11,64.1,16.1,64.1,21.2,64.1z"/>
		<path d="M33.5,18.2c0-1,0-1.9,0-2.9c1,0,1.9,0,2.9,0c0-2.1,0-4.1,0-6.2c1.1,0,2.1,0,3.2,0c0-1.1,0-2.1,0-3.2c1,0,1.9,0,2.9,0
			c0,3.1,0,6.2,0,9.3c-1,0-1.9,0-2.9,0c0,2,0,3.9,0,5.9c0.9,0,1.9,0,2.9,0c0,3.1,0,6.1,0,9.1c-1,0-1.9,0-2.9,0c0,1.1,0,2.1,0,3.2
			c-1.1,0-2.2,0-3.2,0c0,0,0,0,0,0c0-1,0-2.1,0-3.2c1.1,0,2.1,0,3.2,0c0-1,0-1.9,0-3c-1,0-2.1,0-3.2,0c0-1,0-2,0-2.9
			c-1,0-1.9,0-2.9,0c0,1,0,1.9,0,2.9c-1.1,0-2.1,0-3.2,0c0-1,0-1.9,0-2.9c-1,0-1.9,0-2.9,0c0-4.1,0-8.2,0-12.3c0.9,0,1.9,0,2.9,0
			c0,2,0,4,0,6.1C31.4,18.2,32.5,18.2,33.5,18.2c0,1,0,2,0,3c-1.1,0-2.1,0-3.2,0c0,1.1,0,2.1,0,3.2c1.1,0,2.1,0,3.2,0
			c0-1.1,0-2.1,0-3.2c1,0,2,0,3,0c0,1,0,2.1,0,3.2c1.1,0,2.1,0,3.2,0c0-1.1,0-2.1,0-3.1c-1.1,0-2.1,0-3.2,0c0-1,0-2,0-3
			C35.5,18.2,34.5,18.2,33.5,18.2z"/>
		<path d="M36.5,3c0,1,0,1.9,0,2.9c-2,0-4,0-6.1,0c0,1.1,0,2.1,0,3.2c-1,0-2,0-2.9,0c0-2,0-4.1,0-6.1C30.4,3,33.4,3,36.5,3z"/>
		<path d="M3,39.7c2,0,4,0,6.1,0c0,1,0,1.9,0,2.9c-2,0-4,0-6.1,0C3,41.6,3,40.7,3,39.7z"/>
		<path d="M27.4,45.6c0-1,0-1.9,0-2.9c2,0,4.1,0,6.1,0c0,1,0,1.9,0,2.9C31.5,45.6,29.5,45.6,27.4,45.6z"/>
		<path class="st2" d="M48.8,54.7c0,2,0,4.1,0,6.1c-1.1,0-2.1,0-3.2,0c0-0.9,0-1.9,0-2.9c-2,0-3.9,0-5.9,0c0-1.1,0-2.1,0-3.2
			c1,0,1.9,0,2.9,0c0-1,0-2,0-2.9c1,0,2,0,3,0c0,1,0,1.9,0,2.9C46.7,54.7,47.8,54.7,48.8,54.7C48.8,54.7,48.8,54.7,48.8,54.7z"/>
		<path class="st2" d="M54.7,39.6c0-1,0-2.1,0-3.1c2,0,4,0,6.1,0c0,1,0,2,0,3.1C58.8,39.6,56.8,39.6,54.7,39.6z"/>
		<path class="st2" d="M42.6,45.6c0,2,0,4,0,6.1c-1,0-1.9,0-2.9,0c0-2,0-4,0-6.1C40.7,45.6,41.6,45.6,42.6,45.6z"/>
		<path class="st2" d="M54.7,33.5c-1,0-1.9,0-2.9,0c0-1,0-2.1,0-3.1c1,0,1.9,0,2.9,0C54.7,31.4,54.7,32.4,54.7,33.5z"/>
		<path class="st2" d="M57.9,42.7c0,1,0,1.9,0,2.9c-1.1,0-2.1,0-3.1,0c0-0.9,0-1.9,0-2.9C55.8,42.7,56.8,42.7,57.9,42.7z"/>
		<path class="st2" d="M51.8,42.6c0-1,0-1.9,0-2.9c1,0,1.9,0,2.9,0c0,0.9,0,1.9,0,2.9C53.7,42.6,52.8,42.6,51.8,42.6z"/>
		<path class="st2" d="M45.6,42.7c0,1,0,1.9,0,2.9c-1,0-1.9,0-2.9,0c0-0.9,0-1.9,0-2.9C43.6,42.7,44.6,42.7,45.6,42.7z"/>
		<path class="st2" d="M21.3,36.5c1.1,0,2.1,0,3.1,0c0,1,0,2.1,0,3.1c-1,0-2.1,0-3.1,0C21.3,38.6,21.3,37.5,21.3,36.5z"/>
		<path class="st2" d="M24.4,30.4c0,1,0,2.1,0,3.1c-1,0-2.1,0-3.1,0c0-1,0-2.1,0-3.1C22.3,30.4,23.3,30.4,24.4,30.4z"/>
		<path class="st2" d="M64.1,6c0,5.1,0,10.1,0,15.2c-5.1,0-10.1,0-15.2,0c0-5.1,0-10.1,0-15.2C53.9,6,58.9,6,64.1,6z M51.8,9.2
			c0,3,0,6,0,9.1c3,0,6,0,9,0c0-3,0-6,0-9.1C57.8,9.2,54.8,9.2,51.8,9.2z"/>
		<path class="st2" d="M5.9,21.2c0-5.1,0-10.1,0-15.2C11,6,16.1,6,21.2,6c0,5.1,0,10.1,0,15.2C16.1,21.2,11,21.2,5.9,21.2z
			 M9.2,18.2c3,0,6,0,9.1,0c0-3,0-6,0-9c-3,0-6,0-9.1,0C9.2,12.2,9.2,15.2,9.2,18.2z"/>
		<path class="st2" d="M21.2,64.1c-5.1,0-10.1,0-15.2,0C6,59,6,53.9,6,48.8c5.1,0,10.1,0,15.2,0C21.2,53.9,21.2,58.9,21.2,64.1z
			 M18.2,60.8c0-3,0-6,0-9.1c-3,0-6,0-9,0c0,3,0,6,0,9.1C12.2,60.8,15.2,60.8,18.2,60.8z"/>
		<path class="st2" d="M36.5,21.2c1,0,2.1,0,3.2,0c0,1,0,2.1,0,3.1c-1,0-2.1,0-3.2,0C36.5,23.3,36.5,22.3,36.5,21.2
			C36.5,21.2,36.5,21.2,36.5,21.2z"/>
		<path class="st2" d="M33.5,21.2c0,1,0,2.1,0,3.2c-1.1,0-2.1,0-3.2,0c0-1,0-2.1,0-3.2C31.4,21.2,32.5,21.2,33.5,21.2L33.5,21.2z"/>
		<path class="st2" d="M33.5,21.2c0-1,0-2,0-3c0,0,0,0,0,0c1,0,1.9,0,2.9,0c0,1,0,2,0,3c0,0,0,0,0,0C35.5,21.2,34.5,21.2,33.5,21.2
			C33.5,21.2,33.5,21.2,33.5,21.2z"/>
		<path d="M51.8,9.2c3,0,6,0,9,0c0,3,0,6,0,9.1c-3,0-6,0-9,0C51.8,15.2,51.8,12.2,51.8,9.2z"/>
		<path d="M9.2,18.2c0-3,0-6,0-9c3,0,6,0,9.1,0c0,3,0,6,0,9C15.2,18.2,12.2,18.2,9.2,18.2z"/>
		<path d="M18.2,60.8c-3,0-6,0-9,0c0-3,0-6,0-9.1c3,0,6,0,9,0C18.2,54.8,18.2,57.8,18.2,60.8z"/>
	</g>
	<rect x="42" y="54" class="st1" width="10" height="13"/>
	<rect x="48" y="59" class="st3" width="10" height="5"/>
</g>
<g id="Layer_2">
	<path class="st4" d="M46,5v20h20V5H46z M63,22H49V8h14V22z"/>
	<path class="st4" d="M6,5v20h20V5H6z M23,22H9V8h14V22z"/>
	<path class="st4" d="M6,45v20h20V45H6z M23,62H9V48h14V62z"/>
	<rect x="12" y="51" class="st4" width="8" height="8"/>
	<rect x="12" y="11" class="st4" width="8" height="8"/>
	<rect x="52" y="11" class="st4" width="8" height="8"/>
	<g>
		<polygon class="st4" points="10,37 10,29 6,29 6,41 18,41 18,37 		"/>
		<rect x="30" y="5" class="st4" width="4" height="12"/>
		<rect x="38" y="5" class="st4" width="4" height="4"/>
		<polygon class="st4" points="30,61 30,65 38,65 38,57 34,57 34,61 		"/>
		<rect x="30" y="53" class="st4" width="4" height="4"/>
		<polygon class="st4" points="62,61 62,65 66,65 66,53 62,53 62,57 58,57 58,61 		"/>
		<rect x="30" y="37" class="st4" width="4" height="4"/>
		<polygon class="st4" points="38,41 42,41 42,33 50,33 50,29 38,29 38,25 42,25 42,13 38,13 38,17 34,17 34,21 30,21 30,25 34,25 
			34,29 14,29 14,33 18,33 18,37 22,37 22,41 26,41 26,33 34,33 34,37 38,37 		"/>
		<polygon class="st4" points="66,33 66,29 58,29 58,37 54,37 54,33 50,33 50,37 46,37 46,41 42,41 42,45 38,45 38,41 34,41 34,45 
			30,45 30,49 34,49 34,53 42,53 42,57 46,57 46,65 58,65 58,61 54,61 54,57 58,57 58,53 54,53 54,49 50,49 50,53 46,53 46,49 
			50,49 50,45 58,45 58,49 62,49 66,49 66,45 62,45 62,41 66,41 66,37 62,37 62,33 		"/>
	</g>
</g>
</svg>
