<?xml version="1.0" encoding="utf-8"?>
<!-- Generator: Adobe Illustrator 22.0.1, SVG Export Plug-In . SVG Version: 6.00 Build 0)  -->
<svg version="1.1" id="Layer_1" xmlns="http://www.w3.org/2000/svg" xmlns:xlink="http://www.w3.org/1999/xlink" x="0px" y="0px"
	 viewBox="0 0 70 70" enable-background="new 0 0 70 70" xml:space="preserve">
<path fill="#444444" d="M35,7C19.5,7,7,19.5,7,35c0,15.5,12.5,28,28,28s28-12.5,28-28C63,19.5,50.5,7,35,7z M35,59c-13.3,0-24-10.7-24-24
	s10.7-24,24-24s24,10.7,24,24S48.3,59,35,59z"/>
<g>
	<path fill="#444444" d="M25.5,19.4c0.6-0.5,1.3-1,2.1-1.5c0.7-0.5,1.5-0.9,2.4-1.2c0.9-0.3,1.8-0.6,2.7-0.8c1-0.2,2-0.3,3.2-0.3
		c1.6,0,3,0.2,4.3,0.6c1.3,0.4,2.4,1,3.3,1.8c0.9,0.8,1.6,1.7,2.1,2.9s0.7,2.4,0.7,3.7c0,1.3-0.2,2.4-0.5,3.4
		c-0.4,0.9-0.8,1.8-1.4,2.5c-0.5,0.7-1.1,1.3-1.8,1.8c-0.7,0.5-1.3,1-1.9,1.4c-0.6,0.4-1.1,0.9-1.5,1.3c-0.4,0.4-0.7,0.9-0.8,1.4
		L37.7,40h-5.4l-0.6-4.1c-0.1-0.8-0.1-1.6,0.3-2.2c0.3-0.6,0.7-1.2,1.3-1.7c0.5-0.5,1.1-1,1.8-1.4c0.7-0.5,1.3-0.9,1.9-1.5
		c0.6-0.5,1.1-1.1,1.5-1.7c0.4-0.6,0.6-1.4,0.6-2.3c0-1-0.3-1.8-1-2.4c-0.7-0.6-1.6-0.9-2.8-0.9c-0.9,0-1.7,0.1-2.3,0.3
		c-0.6,0.2-1.1,0.4-1.6,0.6c-0.4,0.2-0.8,0.4-1.1,0.6s-0.6,0.3-1,0.3c-0.7,0-1.3-0.3-1.6-0.9L25.5,19.4z M30.2,49.2
		c0-0.6,0.1-1.2,0.3-1.7c0.2-0.5,0.5-1,0.9-1.4c0.4-0.4,0.9-0.7,1.4-0.9s1.1-0.3,1.8-0.3c0.6,0,1.2,0.1,1.8,0.3s1,0.5,1.4,0.9
		c0.4,0.4,0.7,0.9,1,1.4c0.2,0.5,0.3,1.1,0.3,1.7c0,0.6-0.1,1.2-0.3,1.7c-0.2,0.5-0.5,1-1,1.4c-0.4,0.4-0.9,0.7-1.4,0.9
		c-0.5,0.2-1.1,0.3-1.8,0.3c-0.6,0-1.2-0.1-1.8-0.3c-0.5-0.2-1-0.5-1.4-0.9s-0.7-0.9-0.9-1.4C30.3,50.4,30.2,49.8,30.2,49.2z"/>
</g>
</svg>
