<?xml version="1.0" encoding="utf-8"?>
<!-- Generator: Adobe Illustrator 22.0.1, SVG Export Plug-In . SVG Version: 6.00 Build 0)  -->
<svg version="1.1" id="Layer_1" xmlns="http://www.w3.org/2000/svg" xmlns:xlink="http://www.w3.org/1999/xlink" x="0px" y="0px"
	 viewBox="0 0 70 70" enable-background="new 0 0 70 70" xml:space="preserve">
<path d="M63.5,6.3l-58,14c-0.9,0.2-1.5,1-1.5,1.9v39.4c0,1.1,0.9,2,2,2h21.5c1.1,0,2-0.9,2-2v-15c0-1.1,0.9-2,2-2h7c1.1,0,2,0.9,2,2
	v15c0,1.1,0.9,2,2,2H64c1.1,0,2-0.9,2-2V8.3C66,7,64.8,6,63.5,6.3z M25,52.7c0,1.1-0.9,2-2,2h-6c-1.1,0-2-0.9-2-2v-9
	c0-1.1,0.9-2,2-2h6c1.1,0,2,0.9,2,2V52.7z M56,52.7c0,1.1-0.9,2-2,2h-6c-1.1,0-2-0.9-2-2v-9c0-1.1,0.9-2,2-2h6c1.1,0,2,0.9,2,2V52.7
	z"/>
</svg>
