<?xml version="1.0" encoding="utf-8"?>
<!-- Generator: Adobe Illustrator 22.0.1, SVG Export Plug-In . SVG Version: 6.00 Build 0)  -->
<svg version="1.1" id="Layer_1" xmlns="http://www.w3.org/2000/svg" xmlns:xlink="http://www.w3.org/1999/xlink" x="0px" y="0px"
	 viewBox="0 0 60 60" enable-background="new 0 0 60 60" xml:space="preserve">
<path fill="#FFFFFF" d="M31.1,14.6l14.8,14.8c0.8,0.8,0.8,2,0,2.8L23.9,54.3c-0.4,0.4-0.9,0.6-1.4,0.6L7.4,55.2c-1.1,0-2.1-0.9-2-2
	L5.6,38c0-0.5,0.2-1,0.6-1.4l22.1-22.1C29,13.8,30.3,13.8,31.1,14.6z"/>
<path fill="#FFFFFF" d="M42.3,3.4l14.8,14.8c0.8,0.8,0.8,2,0,2.8l-5.7,5.7c-0.8,0.8-2,0.8-2.8,0L33.8,11.8c-0.8-0.8-0.8-2,0-2.8
	l5.7-5.7C40.2,2.6,41.5,2.6,42.3,3.4z"/>
</svg>
