<?xml version="1.0" encoding="utf-8"?>
<!-- Generator: Adobe Illustrator 22.0.1, SVG Export Plug-In . SVG Version: 6.00 Build 0)  -->
<svg version="1.1" id="Layer_1" xmlns="http://www.w3.org/2000/svg" xmlns:xlink="http://www.w3.org/1999/xlink" x="0px" y="0px"
	 viewBox="0 0 70 70" enable-background="new 0 0 70 70" xml:space="preserve">
<path fill="#444444" d="M59.8,10.2c-9-9-23.6-9-32.6,0c-8.3,8.3-8.9,21.2-2.1,30.2l-3,3c-0.7-0.3-1.6-0.2-2.2,0.4L4.1,59.7c-0.8,0.8-0.8,2,0,2.8
	l0.8,0.8l1.9,1.9l0.8,0.8c0.8,0.8,2,0.8,2.8,0l15.7-15.7c0.6-0.6,0.7-1.5,0.4-2.2l3-3c9,6.9,22,6.2,30.2-2.1
	C68.8,33.9,68.8,19.3,59.8,10.2z M55.4,38.5c-6.6,6.6-17.3,6.6-23.8,0c-6.6-6.6-6.6-17.3,0-23.8c6.6-6.6,17.3-6.6,23.8,0
	C62,21.2,62,31.9,55.4,38.5z"/>
</svg>
