<?xml version="1.0" encoding="utf-8"?>
<!-- Generator: Adobe Illustrator 22.0.1, SVG Export Plug-In . SVG Version: 6.00 Build 0)  -->
<svg version="1.1" id="Layer_1" xmlns="http://www.w3.org/2000/svg" xmlns:xlink="http://www.w3.org/1999/xlink" x="0px" y="0px"
	 viewBox="0 0 70 70" enable-background="new 0 0 70 70" xml:space="preserve">
<path d="M62,4H8C5.8,4,4,5.8,4,8v54c0,2.2,1.8,4,4,4h54c2.2,0,4-1.8,4-4V8C66,5.8,64.2,4,62,4z M35.5,51.5c-8.8,0-16-7.2-16-16
	s7.2-16,16-16s16,7.2,16,16S44.3,51.5,35.5,51.5z M53.5,20.5c-2.2,0-4-1.8-4-4s1.8-4,4-4s4,1.8,4,4S55.7,20.5,53.5,20.5z"/>
</svg>
