<?xml version="1.0" encoding="utf-8"?>
<!-- Generator: Adobe Illustrator 22.1.0, SVG Export Plug-In . SVG Version: 6.00 Build 0)  -->
<svg version="1.1" id="Layer_1" xmlns="http://www.w3.org/2000/svg" xmlns:xlink="http://www.w3.org/1999/xlink" x="0px" y="0px"
	 viewBox="0 0 100 100" enable-background="new 0 0 100 100" xml:space="preserve">
<g>
	<path fill="#9e989a" d="M20.4,15l4.6,22.6c0.3,1.7,0.3,3.5-0.1,5.1l-2.8,12.4c-0.6,3.4-1.1,6.7-1.4,10.2l-1.8,22.2
		c-0.1,1.6-1.6,2.7-3.1,2.4l-5.8-1.2c-1.3-0.3-2.2-1.5-2.1-2.8l2.9-31.2c0.3-3.3,0.8-6.5,1.4-9.7l6-30.1
		C18.5,13.8,20.2,13.8,20.4,15z"/>
	<path fill="#9e989a" d="M79.6,15l-4.7,22.7c-0.3,1.6-0.3,3.2,0.1,4.8l2.9,12.6c0.6,3.4,1.1,6.7,1.4,10.2l1.8,22.2
		c0.1,1.6,1.6,2.7,3.1,2.4l5.8-1.2c1.3-0.3,2.2-1.5,2.1-2.8l-2.9-31.2c-0.3-3.3-0.8-6.5-1.4-9.7l-6-30.1
		C81.5,13.8,79.8,13.8,79.6,15z"/>
	<path fill="#9e989a" d="M49.8,1.8c-4.9,0-7.4,1.5-8.4,5.2c3-0.5,5.8-0.8,8.4-0.8c2.6,0,5.5,0.3,8.6,0.8C57.4,3.4,54.7,1.8,49.8,1.8
		z"/>
	<path fill="#9e989a" d="M63,7.4c-1.2-1.1-2.4-2.1-3.8-2.9c0,0-0.1,0-0.1,0c-0.1,0-0.2-0.1-0.3-0.1c1,2.2,1.5,5,1.5,8.3
		c-0.2,13.9-7.2,37-9.1,43c1.6-2.6,3.1-5.2,4.4-7.9c1.6-3.4,3.2-6.9,4.5-10.4c1.3-3.5,2.5-7.1,3.6-10.7c1-3.5,1.9-7,2.6-10.5
		L62,13.4c-0.3-0.2-0.4-0.6-0.2-0.9c0.1-0.1,0.2-0.2,0.2-0.2l3.6-1.8C64.9,9.4,63.9,8.3,63,7.4z"/>
	<g>
		<path fill="#9e989a" d="M50.7,68.6c0.1-0.9,0.2-1.8,0.3-2.7c0.1-0.9,0.2-1.8,0.1-2.7c-0.1-1.7-1.2,11.8-1.2,11.8
			C50.2,72.8,50.5,70.7,50.7,68.6z"/>
		<path fill="#9e989a" d="M77.2,12c-1.9-0.6-6.6-2.2-11.2-3.1c0.4,0.5,0.7,1,1.1,1.5c0.2,0.3,0.1,0.6-0.2,0.8l0,0l0,0l-3.2,1.6
			l3.7,2.3l0,0c0.2,0.1,0.3,0.4,0.3,0.6c-0.8,3.7-1.8,7.4-2.9,11c-1.1,3.6-2.4,7.2-3.7,10.8c-1.4,3.5-2.9,7-4.6,10.4
			c-1.7,3.3-3.6,6.5-5.6,9.5c-0.1,0.1-0.1,0.2,0,0.4c0.5,1.7,0.9,3.4,1,5.1c0,0.9,0,1.9-0.1,2.8c-0.1,0.9-0.1,1.8-0.2,2.8
			c-0.3,3.7-0.8,7.4-1.3,11c0,0.2-0.1,0.4-0.1,0.6c1.2,7.4,2.7,13.1,3.5,16c0.4,1.3,1.7,2.1,3,1.9c8.4-1.5,15.2-4.4,18-5.7
			c0.8-0.4,1.1-1.2,0.9-2.1c-1.3-3.9-5-15.4-5-25.2c0-10.7,6.5-43.8,8-51.2C78.5,13.1,78,12.2,77.2,12z"/>
	</g>
	<g>
		<path fill="#9e989a" d="M38.1,13.4L33.8,16c0.7,3.6,1.6,7.2,2.6,10.8c1.1,3.7,2.3,7.4,3.6,11c1.4,3.6,2.9,7.1,4.6,10.6
			c1.3,2.6,2.8,5.2,4.4,7.6c0-0.2-0.1-0.3-0.1-0.4c-2.2-5.9-9.2-26.3-9.1-43.5c0-3.2,0.5-5.8,1.4-7.9c-0.2,0.1-0.5,0.3-0.7,0.4
			c-1.2,0.8-2.4,1.7-3.5,2.7c-1,0.9-1.9,2-2.7,3.1l3.6,1.8c0.3,0.2,0.4,0.5,0.3,0.8C38.3,13.2,38.2,13.3,38.1,13.4z"/>
	</g>
	<path fill="#9e989a" d="M44.5,98.1c0.7-0.5,1.3-1.4,1.5-2.3c0.5-1.8,0.9-3.6,1.2-5.4c0.7-3.6,1.4-7.2,2-10.9
		c0.6-3.6,1.1-7.3,1.4-11c0.1-0.9,0.2-1.8,0.3-2.7c0.1-0.9,0.2-1.8,0.1-2.7c-0.1-1.5-0.3-2.9-0.8-4.3c-0.1-0.3-0.2-0.5-0.4-0.7
		c-2.1-3-4.1-6.1-5.8-9.3c-1.8-3.4-3.4-7-4.8-10.6c-1.4-3.6-2.7-7.3-3.8-11c-1.1-3.7-2.1-7.5-2.9-11.3c-0.1-0.3,0.1-0.5,0.3-0.6l0,0
		l0,0l3.7-2.3l-3.2-1.6l0,0c-0.3-0.1-0.4-0.5-0.3-0.8l0,0c0.3-0.4,0.5-0.8,0.8-1.2c-4.7,0.9-9.3,2.2-11.2,2.8
		c-0.8,0.2-1.3,1.1-1.2,1.9c1.5,7.4,8,40.5,8,51.2c0,9.8-3.6,21.3-5,25.2c-0.3,0.8,0.1,1.7,0.9,2.1c2.8,1.3,9.6,4.2,18,5.7
		C43.7,98.2,44.2,98.2,44.5,98.1z M48.2,61.9c0.7,0,1.2,0.5,1.2,1.2c0,0.7-0.5,1.2-1.2,1.2c-0.7,0-1.2-0.5-1.2-1.2
		C47,62.5,47.6,61.9,48.2,61.9z"/>
</g>
</svg>
